<?xml version="1.0" standalone="no"?>
<!DOCTYPE svg PUBLIC "-//W3C//DTD SVG 20010904//EN"
 "http://www.w3.org/TR/2001/REC-SVG-20010904/DTD/svg10.dtd">
<svg version="1.0" xmlns="http://www.w3.org/2000/svg"
 width="300.000000pt" height="300.000000pt" viewBox="0 0 300.000000 300.000000"
 preserveAspectRatio="xMidYMid meet">
<metadata>
Created by potrace 1.10, written by Peter Selinger 2001-2011
</metadata>
<g transform="translate(0.000000,300.000000) scale(0.100000,-0.100000)"
fill="#000000" stroke="none">
<path d="M1888 2663 c17 -2 47 -2 65 0 17 2 3 4 -33 4 -36 0 -50 -2 -32 -4z"/>
<path d="M1447 2594 c19 -8 41 -29 52 -51 11 -21 20 -33 21 -28 0 21 -41 76
-66 85 -38 15 -44 10 -7 -6z"/>
<path d="M1840 2538 c-55 -28 -86 -86 -126 -233 -21 -80 -27 -123 -27 -218 -1
-102 -3 -117 -17 -111 -34 15 -186 15 -240 0 -30 -8 -56 -13 -57 -12 -2 1 8
38 22 82 60 196 59 381 -2 442 -21 21 -31 24 -72 20 -72 -7 -107 -38 -148
-127 -78 -169 -98 -257 -112 -486 -7 -128 -11 -145 -37 -191 -26 -47 -36 -55
-109 -88 -44 -19 -105 -44 -136 -56 -30 -11 -67 -32 -82 -48 -34 -36 -117
-174 -152 -254 -21 -49 -36 -69 -69 -89 -35 -22 -46 -37 -74 -107 -35 -86 -34
-104 6 -134 9 -7 22 -22 28 -33 18 -33 64 -31 108 5 21 16 43 30 47 30 15 0
49 -39 49 -55 0 -22 41 -44 73 -38 15 3 37 17 48 32 18 22 20 36 16 83 l-5 56
70 32 c96 42 146 40 170 -10 9 -19 30 -87 47 -150 16 -63 38 -135 49 -160 10
-25 24 -67 31 -94 l12 -50 -60 -57 c-34 -31 -61 -62 -61 -68 0 -7 25 -11 69
-11 109 0 335 21 342 32 4 6 10 80 14 164 l7 154 49 0 c36 0 49 -4 49 -15 0
-8 23 -58 51 -112 28 -54 59 -113 67 -130 l16 -33 188 0 c144 0 188 3 188 13
0 6 -25 43 -55 80 -30 38 -55 76 -55 85 0 9 8 93 17 186 l17 169 31 12 c16 7
60 15 98 18 l67 5 0 -27 c0 -46 21 -64 82 -69 49 -4 57 -2 72 19 9 13 16 31
16 41 0 10 7 18 15 18 18 0 35 -31 35 -64 0 -58 88 -58 122 0 11 18 28 36 39
39 41 13 50 44 43 155 -7 102 -7 103 -39 122 -25 14 -39 34 -56 79 -12 34 -41
87 -65 119 -51 70 -115 104 -279 151 -98 28 -113 35 -135 66 -14 19 -35 47
-47 63 -27 33 -28 56 -8 130 86 312 102 473 53 566 -34 65 -46 74 -104 80 -39
4 -58 1 -94 -18z m136 -74 c33 -34 34 -39 34 -114 0 -98 -31 -284 -68 -401
-15 -49 -29 -89 -32 -89 -3 1 -13 11 -22 25 -17 23 -17 26 13 88 48 104 41
237 -14 237 -67 0 -106 -77 -109 -213 0 -38 -4 -47 -15 -43 -8 3 -19 6 -24 6
-14 0 -11 138 6 233 19 112 67 252 96 283 36 38 93 34 135 -12z m-608 -24 c10
-18 12 -59 9 -155 -4 -116 -8 -142 -41 -241 -33 -102 -39 -112 -76 -137 -24
-16 -40 -21 -40 -13 0 6 4 16 9 22 10 11 47 125 55 170 7 44 -13 69 -48 60
-51 -13 -87 -110 -90 -242 -1 -51 -5 -64 -24 -78 -13 -10 -25 -16 -26 -14 -5
6 23 290 33 338 6 26 29 94 51 153 31 80 50 113 77 137 44 39 90 39 111 0z
m527 -346 c0 -47 -7 -76 -29 -123 -31 -64 -39 -70 -61 -47 -10 10 -11 23 -5
52 5 21 12 60 15 86 7 52 39 101 64 96 13 -3 16 -16 16 -64z m-645 -6 c0 -22
-53 -192 -63 -203 -19 -19 1 132 23 174 20 40 40 54 40 29z m390 -149 c25 -5
61 -12 80 -15 77 -14 180 -96 270 -214 l58 -76 103 -32 c57 -18 113 -32 124
-33 31 0 96 -49 137 -104 21 -28 69 -112 108 -189 70 -137 83 -189 58 -214
-16 -16 -28 -15 -28 3 0 27 -40 95 -55 95 -20 0 -19 -9 5 -45 23 -34 25 -66 9
-98 -25 -47 -54 -49 -63 -5 -8 41 -43 78 -72 78 -25 0 -54 -34 -54 -63 0 -15
-7 -18 -42 -15 -43 3 -43 3 -46 46 l-3 42 -84 0 c-116 0 -184 -15 -190 -43
-19 -86 -25 -128 -35 -245 -12 -147 -6 -171 59 -241 37 -39 38 -45 9 -38 -13
3 -76 7 -142 9 l-118 2 -60 126 c-33 69 -63 132 -67 140 -11 20 -102 35 -144
24 -28 -9 -33 -15 -39 -54 -3 -25 -7 -88 -7 -140 -2 -147 11 -134 -158 -148
-80 -7 -148 -10 -150 -8 -2 2 11 13 29 24 64 40 64 45 14 222 -25 88 -51 192
-56 232 -6 40 -13 80 -15 88 -9 27 -71 60 -121 66 -43 4 -59 0 -134 -38 l-85
-43 3 -58 c1 -32 -2 -67 -8 -77 -16 -30 -46 -25 -58 9 -20 56 -89 66 -151 22
-32 -23 -51 -27 -51 -11 0 19 32 74 56 99 29 29 30 41 4 41 -24 0 -58 -34 -77
-78 -11 -28 -17 -32 -28 -22 -8 7 -15 17 -15 22 0 13 58 86 95 119 17 15 61
87 98 161 76 149 127 225 160 237 12 5 73 29 135 52 l113 44 45 76 c42 73 122
155 194 202 25 16 183 61 245 70 53 7 99 6 145 -4z"/>
<path d="M1831 1804 c25 -27 63 -80 83 -117 l38 -69 -21 -21 c-45 -49 -69
-158 -51 -229 6 -24 27 -80 47 -125 l35 -83 -26 -56 c-38 -83 -32 -87 10 -5
33 62 41 71 71 77 36 7 110 -2 128 -15 5 -4 19 -11 29 -15 19 -7 19 -6 2 13
-34 37 -110 49 -185 30 -18 -5 -75 125 -92 209 -12 55 -11 61 15 117 34 74 52
95 85 96 23 0 24 1 6 8 -11 5 -23 7 -27 5 -4 -3 -23 24 -42 58 -40 73 -98 143
-129 159 -13 7 -2 -9 24 -37z"/>
<path d="M1651 1704 c-25 -18 -25 -51 1 -67 35 -22 67 44 35 71 -10 9 -19 7
-36 -4z"/>
<path d="M1194 1696 c-15 -40 21 -80 54 -60 37 24 21 74 -25 74 -13 0 -26 -6
-29 -14z"/>
<path d="M1733 1642 c21 -23 22 -56 1 -76 -23 -23 -39 -20 -68 15 -21 24 -26
27 -26 12 1 -51 79 -83 114 -47 31 31 12 114 -26 114 -6 0 -4 -8 5 -18z"/>
<path d="M1142 1638 c-7 -7 -12 -27 -12 -44 0 -57 69 -85 110 -44 11 11 20 30
19 43 l0 22 -11 -21 c-5 -12 -21 -27 -33 -34 -45 -24 -77 10 -58 61 12 30 5
37 -15 17z"/>
<path d="M1366 1621 c-8 -13 3 -17 42 -17 17 1 33 6 35 11 3 13 -69 19 -77 6z"/>
<path d="M1386 1569 c-15 -22 -16 -22 -36 -4 -23 21 -40 12 -24 -12 19 -30 42
-39 64 -25 15 9 26 10 41 1 11 -6 27 -8 35 -5 16 6 20 56 4 56 -5 0 -10 -4
-10 -10 0 -15 -21 -12 -41 6 -15 14 -18 13 -33 -7z"/>
<path d="M983 1549 c-18 -18 -16 -42 11 -149 13 -52 27 -131 30 -175 4 -49 12
-85 21 -94 13 -13 14 -7 9 55 -3 38 -12 105 -21 149 -9 44 -21 113 -27 153 -9
59 -13 71 -23 61z"/>
<path d="M2288 1521 c27 -24 40 -85 43 -209 l2 -92 -52 -41 c-28 -22 -51 -42
-51 -44 0 -12 46 14 81 46 l42 39 -6 112 c-6 130 -18 170 -55 193 l-27 16 23
-20z"/>
<path d="M1360 1280 c0 -36 -4 -50 -14 -50 -8 0 -24 -9 -37 -19 -18 -15 -21
-22 -13 -31 8 -8 14 -9 18 -1 4 6 16 11 27 11 26 0 26 -46 -1 -60 -11 -6 -20
-20 -20 -31 0 -19 1 -19 16 -5 22 23 32 20 39 -13 9 -43 32 -59 53 -37 16 16
16 17 0 10 -12 -4 -18 -1 -18 7 0 8 -3 25 -7 38 -6 24 -5 24 45 18 29 -3 52
-2 52 3 0 15 -36 30 -74 30 -31 0 -36 3 -36 24 0 22 6 26 45 32 25 3 45 10 45
14 0 9 -36 20 -67 20 -20 0 -23 5 -23 45 0 33 -4 45 -15 45 -11 0 -15 -12 -15
-50z"/>
<path d="M880 1149 c-19 -11 -26 -17 -15 -13 11 4 43 10 70 12 38 3 45 7 30
13 -31 12 -47 10 -85 -12z"/>
<path d="M1129 966 c14 -17 233 -166 244 -166 18 0 -9 22 -122 99 -119 80
-144 94 -122 67z"/>
<path d="M1873 947 c-11 -15 -46 -32 -93 -46 -93 -28 -153 -58 -144 -72 8 -14
40 -5 132 37 80 38 107 57 123 86 14 25 4 22 -18 -5z"/>
<path d="M1789 842 c-80 -97 -99 -121 -99 -128 0 -12 67 56 96 98 27 39 30 62
3 30z"/>
<path d="M1076 2472 c-22 -42 -56 -135 -52 -140 2 -2 14 22 25 53 12 31 28 70
36 86 9 16 13 29 11 29 -3 0 -12 -13 -20 -28z"/>
<path d="M2173 2320 c0 -36 2 -50 4 -32 2 17 2 47 0 65 -2 17 -4 3 -4 -33z"/>
</g>
</svg>
