<svg version="1.1" id="Layer_1" xmlns="http://www.w3.org/2000/svg" xmlns:xlink="http://www.w3.org/1999/xlink" x="0px" y="0px"
	 width="100%" viewBox="0 0 592 592" enable-background="new 0 0 592 592" xml:space="preserve">
<path fill="#000000" opacity="1.000000" stroke="none" 
	d="
M292.249298,487.890930 
	C292.076538,490.531097 292.051758,492.708221 291.723785,494.838654 
	C289.745026,507.692413 289.788055,508.237518 277.013916,509.780945 
	C257.019958,512.196716 236.927185,513.801636 216.763336,514.142395 
	C216.596939,514.145203 216.425842,514.153748 216.264343,514.122009 
	C212.832245,513.447205 208.167404,514.899353 206.629089,510.605621 
	C205.086731,506.300476 210.117310,505.635590 212.179657,503.346954 
	C216.752213,498.272736 221.629288,493.490875 227.024597,489.270813 
	C229.730057,487.154663 230.162674,484.477539 229.398224,481.236786 
	C227.606796,473.642426 225.955826,466.089844 222.813416,458.817993 
	C216.255219,443.641541 212.258606,427.613831 208.733810,411.501617 
	C207.584167,406.246460 205.897018,401.264587 203.611130,396.424042 
	C200.013138,388.805023 192.064941,384.796051 184.008865,387.634460 
	C175.861099,390.505127 168.045166,394.319183 160.089890,397.734009 
	C156.539795,399.257874 155.781738,401.734833 156.902649,405.429138 
	C159.118240,412.731171 158.600037,419.919434 154.927231,426.741150 
	C151.293411,433.490417 145.054413,434.606506 138.248337,434.329681 
	C132.469086,434.094604 130.015640,430.037872 128.146561,425.318298 
	C127.538551,423.783020 126.843323,422.221527 125.876289,420.900146 
	C122.364166,416.100922 119.513084,415.471252 114.394386,418.521759 
	C111.977478,419.962158 109.701660,421.708160 107.586975,423.571136 
	C104.121208,426.624329 100.024673,427.631805 95.601540,427.836212 
	C91.179214,428.040619 88.081535,426.128510 87.136063,421.746918 
	C86.601547,419.269745 85.543793,417.781006 83.345909,416.412292 
	C74.964554,411.192841 73.457375,403.782288 78.095619,394.950043 
	C80.557068,390.262909 82.868080,385.322601 84.119751,380.220062 
	C85.565239,374.327362 88.766838,370.196533 93.885925,367.690765 
	C101.526932,363.950500 105.772552,357.911438 109.096817,350.204041 
	C115.496231,335.366943 123.163391,321.120972 132.269058,307.691803 
	C138.622162,298.322174 146.261810,290.981110 157.651688,287.919128 
	C170.732391,284.402588 182.422134,277.322601 194.976028,272.403595 
	C198.807693,270.902222 200.950592,267.585083 203.324112,264.205505 
	C211.998764,251.853912 212.734039,237.884933 212.694916,223.650452 
	C212.590897,185.799072 221.341431,150.122482 238.661392,116.470619 
	C244.843964,104.458183 258.906189,96.570488 271.106110,98.598030 
	C278.272888,99.789093 282.950043,103.778305 285.131531,110.525543 
	C289.811646,125.000740 290.940674,139.703568 288.913239,154.891876 
	C286.961121,169.515610 282.927307,183.538513 278.912537,197.622925 
	C278.154144,200.283356 277.806152,203.060745 277.040192,206.942657 
	C297.433929,201.965195 317.105865,199.939819 336.948486,205.588074 
	C338.359039,201.505753 337.949310,197.794006 337.515045,194.303589 
	C335.398193,177.289780 338.378326,160.801102 342.164886,144.375809 
	C345.014191,132.016083 348.677368,119.893311 354.004364,108.361877 
	C362.082062,90.876068 380.321045,83.910278 397.846405,91.348305 
	C400.389954,92.427818 402.335938,93.973839 403.927490,96.273911 
	C415.904266,113.582359 417.646942,132.779816 413.791046,152.701782 
	C409.811737,173.261261 406.789154,194.070724 399.526001,213.885101 
	C397.743652,218.747559 396.978577,223.889862 396.462158,229.033051 
	C395.889282,234.738907 396.177094,239.949966 400.490051,244.796158 
	C404.763367,249.597824 407.903198,255.403702 411.946350,260.507660 
	C414.163452,263.306488 416.619781,264.895752 419.983337,265.833435 
	C436.975952,270.570618 454.053040,274.924530 470.300751,282.150055 
	C481.708740,287.223267 489.654327,295.507660 496.102417,305.626740 
	C500.949463,313.233185 504.907745,321.336090 507.371338,330.053040 
	C508.549347,334.221100 510.950378,337.077393 514.809326,338.884094 
	C520.618042,341.603760 524.125366,346.079620 523.759338,352.617371 
	C523.171326,363.117523 526.364624,373.412231 525.239929,383.893188 
	C524.611389,389.750153 522.133118,394.655853 515.944885,396.151154 
	C512.226746,397.049622 510.362427,399.303925 508.894836,402.434937 
	C505.343048,410.012573 499.274078,413.058899 491.043793,412.358948 
	C485.586731,411.894836 483.519501,409.887115 482.605774,404.406494 
	C481.790436,399.515717 482.230927,393.762726 475.764862,391.859497 
	C473.322906,393.326691 473.450073,395.929199 472.667847,398.011200 
	C470.014954,405.072113 465.703674,408.124847 458.216949,407.777710 
	C455.562225,407.654633 452.895294,407.317383 450.284454,406.815094 
	C442.430267,405.304138 438.370880,400.803955 437.852783,392.827393 
	C437.677032,390.121521 437.158295,387.954803 433.980164,388.416779 
	C425.756287,389.612213 417.320007,388.796112 409.223480,391.243652 
	C403.679077,392.919739 400.075562,395.569244 399.598297,402.145996 
	C398.526794,416.911346 396.788147,431.628571 395.297546,446.363007 
	C394.962891,449.671234 394.933258,453.079895 394.063110,456.250214 
	C392.096527,463.415192 394.252625,469.316223 398.670959,474.817200 
	C403.573303,480.920746 408.506256,487.007416 413.179077,493.285156 
	C416.997528,498.415039 415.727997,501.682190 409.454498,501.789673 
	C388.330017,502.151581 367.197784,502.124725 346.068665,502.099426 
	C341.511719,502.093964 338.941650,499.650330 336.822174,495.249268 
	C331.555115,484.312256 325.281555,473.863953 319.582123,463.129181 
	C317.321472,458.871246 315.066803,454.515442 313.617035,449.947876 
	C312.113159,445.209747 309.360382,444.064423 304.734650,444.151489 
	C293.410065,444.364655 293.472351,444.165710 293.220123,455.445068 
	C292.981812,466.100647 292.584503,476.752686 292.249298,487.890930 
M271.065704,499.890778 
	C280.113739,497.539734 281.784851,495.446564 281.749664,486.524506 
	C281.741760,484.525146 281.650208,482.519623 281.769806,480.527313 
	C282.517883,468.064240 283.108948,455.586517 284.169830,443.149323 
	C284.849579,435.180908 285.684021,434.643799 293.509369,433.755768 
	C297.142303,433.343475 300.807098,432.840393 304.445587,432.920288 
	C314.222565,433.134857 322.102417,435.090302 325.579895,446.664093 
	C329.936829,461.164948 339.298035,473.625763 345.201691,487.597412 
	C346.174805,489.900391 347.823120,490.715240 350.232941,490.924500 
	C362.696014,492.006531 375.175720,492.306610 387.670746,491.887024 
	C390.037598,491.807556 392.843842,492.506775 394.213287,489.490356 
	C395.512115,486.629486 393.483124,484.816956 392.165588,482.745361 
	C388.418274,476.853394 383.556854,471.144318 383.532806,463.905731 
	C383.452484,439.725067 385.210693,415.691223 390.855225,392.049042 
	C392.153656,386.610535 394.994995,383.671143 400.455261,382.817627 
	C414.108429,380.683411 427.698608,378.374329 441.628143,380.629303 
	C447.658386,381.605499 448.378448,381.976074 447.599976,388.051483 
	C446.738464,394.775085 448.157745,396.860046 454.589081,398.318451 
	C461.161774,399.808899 463.128693,398.684967 465.384216,392.176422 
	C465.874634,390.761108 466.305603,389.311737 466.944641,387.963684 
	C469.585114,382.393433 474.753479,380.935547 480.239655,383.726929 
	C486.043243,386.679779 489.343262,391.220001 490.644135,397.528564 
	C491.076447,399.624969 490.972443,402.424103 494.233612,402.803925 
	C497.452087,403.178772 499.674622,401.761169 501.310699,399.135406 
	C504.965179,393.270447 504.964355,387.175659 502.314148,380.993988 
	C501.135437,378.244537 499.642639,375.631287 498.382629,372.914368 
	C497.889832,371.851715 497.574341,370.612396 498.667755,369.689026 
	C499.781403,368.748535 500.860016,369.405304 501.865967,370.023865 
	C503.755066,371.185394 505.166656,372.805878 506.271851,374.708771 
	C508.279572,378.165466 510.280457,381.616974 511.517731,385.460724 
	C511.967377,386.857697 512.502808,388.471405 514.347046,388.567230 
	C516.418274,388.674866 517.229614,387.062897 517.741150,385.458832 
	C519.349731,380.414886 519.756531,375.401428 517.237061,370.448883 
	C511.121399,358.427429 504.804108,346.498688 499.060547,334.300690 
	C493.698334,322.912628 487.001434,312.438385 479.077209,302.748016 
	C473.618744,296.072937 466.896545,290.368530 458.496063,288.453247 
	C446.131805,285.634247 433.978119,282.278931 421.920746,278.408722 
	C414.386200,275.990265 408.392853,272.826294 403.489227,265.572052 
	C395.055023,253.094803 385.608704,240.943314 373.239685,231.893829 
	C366.185028,226.732468 358.461945,222.382294 350.679016,218.366089 
	C347.271088,216.607513 342.885590,216.856384 339.074066,215.746902 
	C324.884796,211.616577 310.579071,211.401947 296.083008,213.730576 
	C285.217712,215.475952 274.977112,219.948807 263.954407,220.908524 
	C261.226807,221.145996 258.666718,221.895370 256.440521,223.391769 
	C240.209503,234.301743 224.705490,245.989578 214.679428,263.386719 
	C211.773453,268.429108 208.898010,273.489929 205.924530,278.492340 
	C204.541290,280.819458 202.664795,282.897827 200.167770,283.885742 
	C187.637360,288.843384 175.235870,294.263489 162.395798,298.256409 
	C152.967987,301.188232 146.581512,306.753113 141.310730,314.646179 
	C131.927612,328.697571 124.748398,343.906799 117.191063,358.933960 
	C112.118530,369.020294 107.772812,379.678131 97.539139,386.063812 
	C96.877663,386.476593 96.439796,387.298218 95.990883,387.989990 
	C95.196167,389.214569 95.039734,390.483185 96.093292,391.662628 
	C97.169991,392.867981 98.213203,392.116302 99.205376,391.514618 
	C101.068703,390.384735 102.961342,389.299408 105.180328,389.124573 
	C107.043091,388.977814 109.006386,389.124756 110.175995,390.749573 
	C111.578270,392.697693 110.004532,394.249146 108.871254,395.599426 
	C107.161774,397.636230 105.149139,399.416992 103.415443,401.435486 
	C101.161903,404.059387 99.111839,407.118256 101.679138,410.375244 
	C103.946030,413.251038 107.198013,411.905640 109.970993,410.765686 
	C118.172882,407.393829 125.841202,407.992950 133.087402,413.321533 
	C134.817337,414.593689 136.826920,415.500885 138.753143,416.487549 
	C143.041779,418.684326 146.289017,417.042175 147.003082,412.265564 
	C147.474823,409.110016 147.424301,405.859741 146.579285,402.837402 
	C145.524124,399.063446 146.935486,396.414093 149.329849,393.839844 
	C153.532730,389.321228 158.945618,386.625977 164.464310,384.357635 
	C174.939255,380.052155 184.835602,374.117218 197.354187,377.535309 
	C208.873199,380.680420 216.646851,388.291931 218.350983,400.073486 
	C219.846558,410.413391 220.696823,420.844421 223.794586,430.978424 
	C228.853088,447.526886 233.214081,464.288025 237.921661,480.944641 
	C239.013168,484.806641 239.168701,488.479797 236.732742,491.928040 
	C234.306030,495.363159 236.006317,497.842468 238.687088,500.045471 
	C241.254990,502.155701 244.339279,501.829254 247.310410,501.640015 
	C254.948822,501.153534 262.578644,500.532074 271.065704,499.890778 
M222.153610,223.255432 
	C221.932770,225.238312 221.596497,227.216782 221.520477,229.205200 
	C221.426605,231.660233 221.893768,234.560181 224.891205,234.183563 
	C227.402939,233.867996 229.932388,231.876068 229.359482,228.591812 
	C228.986786,226.455276 228.294754,224.344604 228.615067,222.187149 
	C230.152954,211.828033 230.322205,201.227020 233.269608,191.129608 
	C235.318924,184.108841 237.897400,177.097015 244.364761,172.639069 
	C247.505722,170.473999 251.018463,169.219559 254.682510,171.208923 
	C258.248749,173.145172 258.667328,176.710571 258.597137,180.330963 
	C258.492859,185.707169 257.119507,190.855789 255.786331,196.022095 
	C253.632584,204.368286 250.317764,212.337418 247.203873,221.406281 
	C254.400070,217.865738 261.241943,215.776840 262.905273,207.339493 
	C263.833313,202.632019 265.661255,198.087799 267.245392,193.526169 
	C275.568756,169.558487 278.455078,144.986755 275.768707,119.739380 
	C274.568359,108.457909 268.066620,104.692032 257.800659,109.690025 
	C255.883942,110.623192 254.109268,111.964211 252.490280,113.371536 
	C247.102737,118.054657 243.281616,123.774078 240.938431,130.582977 
	C236.550415,143.333908 230.569199,155.713531 227.758301,168.786774 
	C223.992584,186.300781 222.547363,204.321014 222.153610,223.255432 
M377.045563,217.347931 
	C375.440948,222.564621 379.970123,223.373444 382.340820,225.791306 
	C384.818970,224.084137 385.168274,221.840942 385.867523,219.850479 
	C396.718719,188.961685 402.420410,157.243179 402.049347,124.398697 
	C401.972290,117.578308 399.548492,112.533646 395.315155,107.876640 
	C386.412140,98.082581 372.544922,99.673668 366.106903,111.196121 
	C365.053955,113.080544 364.099091,115.040894 363.312317,117.049744 
	C352.378662,144.968094 346.394165,173.749420 348.236938,203.892517 
	C348.385132,206.316925 348.275513,208.674088 351.748566,208.697556 
	C355.089935,208.720123 354.797241,206.292755 354.989716,204.191101 
	C355.823669,195.083557 356.218719,185.914185 359.007782,177.095535 
	C361.332031,169.746613 364.758759,163.243164 372.117340,159.681580 
	C378.812103,156.441254 384.341736,158.547134 386.842072,165.550217 
	C388.655640,170.629898 388.748199,175.966812 388.658813,181.319336 
	C388.442657,194.260788 382.609833,205.373550 377.045563,217.347931 
z"/>
<path fill="#000000" opacity="1.000000" stroke="none" 
	d="
M283.211121,390.403076 
	C282.730438,393.984772 281.125458,393.985107 279.242401,392.008270 
	C277.139709,389.800812 276.030548,386.941895 275.083710,384.106049 
	C274.070679,381.072083 272.570068,379.565430 269.183502,380.850494 
	C267.667633,381.425659 265.694794,381.892365 264.833069,379.865204 
	C263.929749,377.740295 265.566437,376.285095 267.076538,375.356171 
	C270.412415,373.304169 272.724457,371.096680 271.867432,366.604767 
	C271.308075,363.672852 270.194611,362.848877 267.516510,363.835999 
	C266.891876,364.066223 266.265747,364.305725 265.621948,364.468170 
	C263.540375,364.993256 261.118591,367.343323 259.485077,364.290100 
	C257.919556,361.363922 260.633606,359.858765 262.460663,358.228485 
	C262.583923,358.118561 262.721588,357.981415 262.871582,357.951111 
	C272.754395,355.953125 272.108276,348.000519 272.627808,340.709564 
	C272.793915,338.378632 272.669983,335.390533 275.705933,335.284027 
	C279.150177,335.163208 279.041840,338.412506 279.239410,340.833893 
	C280.126556,351.705170 280.107361,351.643494 290.970245,353.930176 
	C293.239075,354.407776 295.971008,354.293060 297.689819,357.026337 
	C294.012695,359.824585 289.845978,359.818176 285.825836,360.413055 
	C283.113220,360.814392 280.044342,360.771881 280.166351,365.069336 
	C280.258820,368.327148 281.104675,369.772339 284.721497,369.887024 
	C293.119354,370.153351 297.683289,372.100647 300.995209,376.136383 
	C298.668732,379.225189 295.250916,378.049835 292.344940,378.088898 
	C281.863800,378.229858 281.864014,378.130676 283.142578,388.507782 
	C283.203491,389.002106 283.194702,389.505005 283.211121,390.403076 
z"/>
<path fill="#000000" opacity="1.000000" stroke="none" 
	d="
M265.737793,285.951782 
	C268.329407,284.282898 269.806915,286.035706 271.197784,287.313324 
	C273.756042,289.663361 275.819580,290.129700 278.064911,286.851715 
	C280.438141,283.387024 283.418213,283.365875 286.518280,286.087219 
	C288.689240,287.992950 290.778381,289.207031 293.288147,286.333710 
	C294.798950,284.604065 296.250763,285.423004 297.144928,287.290619 
	C298.321289,289.747589 298.290619,292.131012 296.474213,294.280212 
	C294.408661,296.724213 291.601685,297.610596 288.864197,296.169312 
	C285.152405,294.215027 282.241211,293.793243 278.771057,296.946625 
	C276.296082,299.195740 272.961578,298.075989 270.547943,295.985657 
	C267.628845,293.457611 263.889191,291.167969 265.737793,285.951782 
z"/>
<path fill="#000000" opacity="1.000000" stroke="none" 
	d="
M239.189026,269.535156 
	C237.192886,264.119141 238.590439,260.386322 242.953323,258.645172 
	C247.485229,256.836578 252.592285,259.426544 254.440872,264.470917 
	C255.756760,268.061676 253.224457,274.032776 249.800415,275.412903 
	C246.364258,276.797913 242.459122,274.724670 239.189026,269.535156 
z"/>
<path fill="#000000" opacity="1.000000" stroke="none" 
	d="
M340.920715,261.699890 
	C341.133911,264.255280 341.452026,266.431885 341.214752,268.546112 
	C340.769196,272.517151 338.335388,275.010590 334.361267,275.129852 
	C330.151031,275.256165 327.555054,272.747101 326.848694,268.629272 
	C326.037659,263.901337 328.101318,260.621033 332.429169,258.682495 
	C335.990356,257.087341 338.882812,257.577667 340.920715,261.699890 
z"/>
</svg>